<svg width="343" height="112" viewBox="0 0 343 112" fill="none" xmlns="http://www.w3.org/2000/svg">
<path d="M152.548 59.1C152.548 57.06 152.956 55.284 153.772 53.772C154.588 52.236 155.716 51.048 157.156 50.208C158.62 49.368 160.288 48.948 162.16 48.948C164.584 48.948 166.576 49.536 168.136 50.712C169.72 51.888 170.764 53.52 171.268 55.608H167.74C167.404 54.408 166.744 53.46 165.76 52.764C164.8 52.068 163.6 51.72 162.16 51.72C160.288 51.72 158.776 52.368 157.624 53.664C156.472 54.936 155.896 56.748 155.896 59.1C155.896 61.476 156.472 63.312 157.624 64.608C158.776 65.904 160.288 66.552 162.16 66.552C163.6 66.552 164.8 66.216 165.76 65.544C166.72 64.872 167.38 63.912 167.74 62.664H171.268C170.74 64.68 169.684 66.3 168.1 67.524C166.516 68.724 164.536 69.324 162.16 69.324C160.288 69.324 158.62 68.904 157.156 68.064C155.716 67.224 154.588 66.036 153.772 64.5C152.956 62.964 152.548 61.164 152.548 59.1ZM193.639 58.38C193.639 59.004 193.603 59.664 193.531 60.36H177.763C177.883 62.304 178.543 63.828 179.743 64.932C180.967 66.012 182.443 66.552 184.171 66.552C185.587 66.552 186.763 66.228 187.699 65.58C188.659 64.908 189.331 64.02 189.715 62.916H193.243C192.715 64.812 191.659 66.36 190.075 67.56C188.491 68.736 186.523 69.324 184.171 69.324C182.299 69.324 180.619 68.904 179.131 68.064C177.667 67.224 176.515 66.036 175.675 64.5C174.835 62.94 174.415 61.14 174.415 59.1C174.415 57.06 174.823 55.272 175.639 53.736C176.455 52.2 177.595 51.024 179.059 50.208C180.547 49.368 182.251 48.948 184.171 48.948C186.043 48.948 187.699 49.356 189.139 50.172C190.579 50.988 191.683 52.116 192.451 53.556C193.243 54.972 193.639 56.58 193.639 58.38ZM190.255 57.696C190.255 56.448 189.979 55.38 189.427 54.492C188.875 53.58 188.119 52.896 187.159 52.44C186.223 51.96 185.179 51.72 184.027 51.72C182.371 51.72 180.955 52.248 179.779 53.304C178.627 54.36 177.967 55.824 177.799 57.696H190.255ZM218.699 43.908L209.231 69H205.451L195.983 43.908H199.475L207.359 65.544L215.243 43.908H218.699ZM234.856 56.076C235.768 56.22 236.596 56.592 237.34 57.192C238.108 57.792 238.708 58.536 239.14 59.424C239.596 60.312 239.824 61.26 239.824 62.268C239.824 63.54 239.5 64.692 238.852 65.724C238.204 66.732 237.256 67.536 236.008 68.136C234.784 68.712 233.332 69 231.652 69H222.292V43.908H231.292C232.996 43.908 234.448 44.196 235.648 44.772C236.848 45.324 237.748 46.08 238.348 47.04C238.948 48 239.248 49.08 239.248 50.28C239.248 51.768 238.84 53.004 238.024 53.988C237.232 54.948 236.176 55.644 234.856 56.076ZM225.568 54.744H231.076C232.612 54.744 233.8 54.384 234.64 53.664C235.48 52.944 235.9 51.948 235.9 50.676C235.9 49.404 235.48 48.408 234.64 47.688C233.8 46.968 232.588 46.608 231.004 46.608H225.568V54.744ZM231.364 66.3C232.996 66.3 234.268 65.916 235.18 65.148C236.092 64.38 236.548 63.312 236.548 61.944C236.548 60.552 236.068 59.46 235.108 58.668C234.148 57.852 232.864 57.444 231.256 57.444H225.568V66.3H231.364ZM261.866 49.272V69H258.59V66.084C257.966 67.092 257.09 67.884 255.962 68.46C254.858 69.012 253.634 69.288 252.29 69.288C250.754 69.288 249.374 68.976 248.15 68.352C246.926 67.704 245.954 66.744 245.234 65.472C244.538 64.2 244.19 62.652 244.19 60.828V49.272H247.43V60.396C247.43 62.34 247.922 63.84 248.906 64.896C249.89 65.928 251.234 66.444 252.938 66.444C254.69 66.444 256.07 65.904 257.078 64.824C258.086 63.744 258.59 62.172 258.59 60.108V49.272H261.866ZM269.089 46.068C268.465 46.068 267.937 45.852 267.505 45.42C267.073 44.988 266.857 44.46 266.857 43.836C266.857 43.212 267.073 42.684 267.505 42.252C267.937 41.82 268.465 41.604 269.089 41.604C269.689 41.604 270.193 41.82 270.601 42.252C271.033 42.684 271.249 43.212 271.249 43.836C271.249 44.46 271.033 44.988 270.601 45.42C270.193 45.852 269.689 46.068 269.089 46.068ZM270.673 49.272V69H267.397V49.272H270.673ZM279.532 42.36V69H276.256V42.36H279.532ZM283.892 59.064C283.892 57.048 284.3 55.284 285.116 53.772C285.932 52.236 287.048 51.048 288.464 50.208C289.904 49.368 291.512 48.948 293.288 48.948C294.824 48.948 296.252 49.308 297.572 50.028C298.892 50.724 299.9 51.648 300.596 52.8V42.36H303.908V69H300.596V65.292C299.948 66.468 298.988 67.44 297.716 68.208C296.444 68.952 294.956 69.324 293.252 69.324C291.5 69.324 289.904 68.892 288.464 68.028C287.048 67.164 285.932 65.952 285.116 64.392C284.3 62.832 283.892 61.056 283.892 59.064ZM300.596 59.1C300.596 57.612 300.296 56.316 299.696 55.212C299.096 54.108 298.28 53.268 297.248 52.692C296.24 52.092 295.124 51.792 293.9 51.792C292.676 51.792 291.56 52.08 290.552 52.656C289.544 53.232 288.74 54.072 288.14 55.176C287.54 56.28 287.24 57.576 287.24 59.064C287.24 60.576 287.54 61.896 288.14 63.024C288.74 64.128 289.544 64.98 290.552 65.58C291.56 66.156 292.676 66.444 293.9 66.444C295.124 66.444 296.24 66.156 297.248 65.58C298.28 64.98 299.096 64.128 299.696 63.024C300.296 61.896 300.596 60.588 300.596 59.1ZM327.444 58.38C327.444 59.004 327.408 59.664 327.336 60.36H311.568C311.688 62.304 312.348 63.828 313.548 64.932C314.772 66.012 316.248 66.552 317.976 66.552C319.392 66.552 320.568 66.228 321.504 65.58C322.464 64.908 323.136 64.02 323.52 62.916H327.048C326.52 64.812 325.464 66.36 323.88 67.56C322.296 68.736 320.328 69.324 317.976 69.324C316.104 69.324 314.424 68.904 312.936 68.064C311.472 67.224 310.32 66.036 309.48 64.5C308.64 62.94 308.22 61.14 308.22 59.1C308.22 57.06 308.628 55.272 309.444 53.736C310.26 52.2 311.4 51.024 312.864 50.208C314.352 49.368 316.056 48.948 317.976 48.948C319.848 48.948 321.504 49.356 322.944 50.172C324.384 50.988 325.488 52.116 326.256 53.556C327.048 54.972 327.444 56.58 327.444 58.38ZM324.06 57.696C324.06 56.448 323.784 55.38 323.232 54.492C322.68 53.58 321.924 52.896 320.964 52.44C320.028 51.96 318.984 51.72 317.832 51.72C316.176 51.72 314.76 52.248 313.584 53.304C312.432 54.36 311.772 55.824 311.604 57.696H324.06ZM335.044 52.476C335.62 51.348 336.436 50.472 337.492 49.848C338.572 49.224 339.88 48.912 341.416 48.912V52.296H340.552C336.88 52.296 335.044 54.288 335.044 58.272V69H331.768V49.272H335.044V52.476Z" fill="black"/>
<path fill-rule="evenodd" clip-rule="evenodd" d="M7.89803 0.737C6.96719 1.055 5.54216 2.145 4.73092 3.158C3.92081 4.171 2.52398 5 1.62812 5C0.230172 5 0 12.545 0 58.5V112H63.2147H126.428L126.117 97.344C125.838 84.274 125.591 82.661 123.83 82.433C122.036 82.2 121.855 83.361 121.855 95.088V108H63.1842H4.51316V56V4H63.1842H121.855V16.912C121.855 28.639 122.036 29.8 123.83 29.567C125.591 29.339 125.838 27.726 126.117 14.656L126.428 0L68.0099 0.0790024C35.8796 0.122002 8.82887 0.418 7.89803 0.737ZM58.1069 37.162C52.2861 39.093 48.7985 41.852 46.2294 46.557C42.7983 52.838 43.4042 62.087 47.6149 67.727C54.0259 76.313 69.1258 78.403 79.8942 72.194C82.109 70.917 82.267 70.484 80.9457 69.313C79.6245 68.142 78.6384 68.237 74.3904 69.946C68.0054 72.513 63.9605 72.511 57.967 69.94C52.5241 67.605 48.5164 61.693 48.5164 56C48.5164 50.307 52.5241 44.395 57.967 42.06C63.9605 39.489 68.0054 39.487 74.3904 42.054C78.5651 43.733 79.6392 43.844 80.8995 42.727C82.1598 41.611 81.6566 41.015 77.8531 39.121C72.5682 36.488 62.9992 35.539 58.1069 37.162ZM91.3914 56.082V75.163L105.472 74.832C119.103 74.511 119.653 74.412 122.653 71.75C127.181 67.734 127.025 61.802 122.294 58.056L118.835 55.317L121.474 53.234C123.325 51.772 124.112 50.066 124.112 47.51C124.112 40.192 119.362 37 108.471 37C102.708 37 101.788 37.25 102.036 38.75C102.263 40.12 103.648 40.571 108.423 40.826C116.112 41.237 119.599 43.122 119.599 46.868C119.599 51.592 115.389 53.682 105.401 53.918C103.225 53.969 101.922 54.521 101.922 55.392C101.922 56.37 103.836 56.906 108.367 57.197C116.936 57.746 120.727 59.976 120.727 64.466C120.727 69.683 117.72 71 105.808 71H95.9046V54C95.9046 37.667 95.8166 37 93.648 37C91.4704 37 91.3914 37.667 91.3914 56.082Z" fill="black"/>
</svg>
