<svg width="18" height="19" viewBox="0 0 18 19" fill="none" xmlns="http://www.w3.org/2000/svg">
<path d="M5.72727 0.155273V10.7073H8.18182V0.155273H5.72727ZM7.36364 9.89559H6.54545V0.966967H7.36364V9.89559ZM10.6364 9.0839H9.81818V3.40205H12.2727V8.29088C12.1309 8.31117 11.997 8.36845 11.8847 8.45686C11.7724 8.54527 11.6858 8.66165 11.6337 8.79413L11.5216 9.0839H11.4545V4.21374H10.6364V9.0839ZM4.09091 6.64882H1.63636V10.7073H4.09091V6.64882ZM3.27273 9.89559H2.45455V7.46051H3.27273V9.89559ZM8.18182 11.519V12.3307H0V0.155273H0.818182V11.519H8.18182ZM13.0909 12.3307C12.7673 12.3307 12.4509 12.4259 12.1818 12.6043C11.9127 12.7826 11.703 13.0362 11.5791 13.3328C11.4553 13.6295 11.4228 13.9559 11.486 14.2708C11.5491 14.5857 11.705 14.8749 11.9338 15.102C12.1627 15.329 12.4542 15.4836 12.7717 15.5463C13.0891 15.6089 13.4181 15.5767 13.7171 15.4539C14.0161 15.331 14.2717 15.1229 14.4515 14.856C14.6313 14.589 14.7273 14.2751 14.7273 13.9541C14.7273 13.5235 14.5549 13.1106 14.248 12.8062C13.9411 12.5017 13.5249 12.3307 13.0909 12.3307ZM13.0909 14.7658C12.9291 14.7658 12.7709 14.7182 12.6364 14.629C12.5018 14.5398 12.3969 14.413 12.335 14.2647C12.2731 14.1164 12.2569 13.9532 12.2884 13.7957C12.32 13.6383 12.3979 13.4936 12.5124 13.3801C12.6268 13.2666 12.7726 13.1893 12.9313 13.158C13.09 13.1266 13.2545 13.1427 13.404 13.2042C13.5535 13.2656 13.6813 13.3696 13.7712 13.5031C13.8611 13.6366 13.9091 13.7935 13.9091 13.9541C13.9091 14.1693 13.8229 14.3758 13.6695 14.528C13.516 14.6802 13.3079 14.7658 13.0909 14.7658ZM16.4495 12.2195L17.0264 10.9711L16.0724 10.0238L14.7436 10.6115L14.2298 10.3712L13.7471 9.0839H12.3971L11.8767 10.4313L11.3425 10.6221L10.08 10.0458L9.126 10.9938L9.72082 12.3144L9.47945 12.8242L8.18182 13.3031V14.6424L9.54 15.1586L9.73227 15.6887L9.15136 16.9411L10.107 17.8875L11.4382 17.2974L11.952 17.5369L12.4347 18.8242H13.7847L14.3051 17.4768L14.8394 17.2861L16.1018 17.8624L17.0525 16.9119L16.4602 15.5937L16.7024 15.0839L18 14.605V13.2657L16.6418 12.7495L16.4495 12.2195ZM17.1818 14.17L16.1018 14.5677L15.6575 15.5093L16.1673 16.644L15.8318 16.9792L14.7845 16.502L13.797 16.8542L13.3486 18.0125H12.8733L12.4715 16.9411L11.5225 16.4995L10.377 17.0085L10.0399 16.6749L10.5226 15.6335L10.1675 14.6546L9 14.2097V13.7382L10.08 13.3396L10.5251 12.398L10.0121 11.2617L10.3484 10.9273L11.3981 11.4062L12.3848 11.0539L12.8332 9.89559H13.3085L13.7103 10.967L14.6577 11.4078L15.8007 10.9029L16.1378 11.2373L15.6592 12.2763L16.0143 13.2536L17.1818 13.6984V14.17Z" fill="#404653"/>
</svg>
