<svg width="20" height="20" viewBox="0 0 80 80" fill="none" xmlns="http://www.w3.org/2000/svg">
<g clip-path="url(#clip0_48_175)">
<path d="M40 80C32.0888 80 24.3552 77.6541 17.7772 73.2588C11.1992 68.8635 6.07234 62.6164 3.04484 55.3074C0.0173312 47.9983 -0.774802 39.9556 0.768607 32.1964C2.31202 24.4372 6.12165 17.3098 11.7157 11.7157C17.3098 6.12165 24.4372 2.31202 32.1964 0.768607C39.9556 -0.774802 47.9983 0.0173312 55.3074 3.04484C62.6164 6.07234 68.8635 11.1992 73.2588 17.7772C77.6541 24.3552 80 32.0888 80 40C80 50.6087 75.7858 60.7828 68.2843 68.2843C60.7828 75.7858 50.6087 80 40 80ZM40 6.15386C33.3059 6.15386 26.7621 8.13891 21.1961 11.858C15.6301 15.577 11.292 20.8631 8.73025 27.0477C6.16851 33.2322 5.49825 40.0376 6.80421 46.6031C8.11017 53.1686 11.3337 59.1994 16.0672 63.9329C20.8006 68.6663 26.8315 71.8899 33.397 73.1958C39.9625 74.5018 46.7678 73.8315 52.9524 71.2698C59.137 68.708 64.423 64.3699 68.1421 58.8039C71.8611 53.238 73.8462 46.6942 73.8462 40C73.8462 31.0235 70.2803 22.4146 63.9329 16.0672C57.5855 9.71979 48.9766 6.15386 40 6.15386Z" fill="#0E8A1A"/>
<path d="M35.3846 57.8461C34.9801 57.8424 34.5803 57.759 34.2081 57.6006C33.8359 57.4422 33.4986 57.2119 33.2154 56.923L19.0616 42.7846C18.5595 42.1942 18.2987 41.4361 18.3313 40.6617C18.364 39.8874 18.6876 39.1539 19.2376 38.6079C19.7875 38.0618 20.5233 37.7434 21.2978 37.7162C22.0723 37.6891 22.8286 37.9553 23.4154 38.4615L37.5539 52.6C37.9816 53.0302 38.2726 53.5773 38.3902 54.1725C38.5079 54.7676 38.447 55.3843 38.2152 55.9449C37.9833 56.5056 37.5909 56.9852 37.0873 57.3235C36.5837 57.6617 35.9913 57.8436 35.3846 57.8461Z" fill="#0E8A1A"/>
<path d="M35.3846 57.8462C34.7747 57.8467 34.1785 57.6659 33.6716 57.3269C33.1646 56.9879 32.7699 56.5059 32.5375 55.9421C32.305 55.3783 32.2453 54.7581 32.366 54.1603C32.4867 53.5625 32.7823 53.0141 33.2153 52.5847L56.5846 29.2308C57.1619 28.6535 57.945 28.3291 58.7615 28.3291C59.578 28.3291 60.361 28.6535 60.9384 29.2308C61.5158 29.8082 61.8401 30.5912 61.8401 31.4077C61.8401 32.2242 61.5158 33.0073 60.9384 33.5847L37.5538 56.9231C37.2706 57.212 36.9333 57.4423 36.5611 57.6007C36.1889 57.759 35.7891 57.8425 35.3846 57.8462Z" fill="#0E8A1A"/>
</g>
<defs>
<clipPath id="clip0_48_175">
<rect width="80" height="80" fill="white"/>
</clipPath>
</defs>
</svg>
